<?xml version="1.0" encoding="iso-8859-1"?>
<!-- Generator: Adobe Illustrator 22.0.1, SVG Export Plug-In . SVG Version: 6.00 Build 0)  -->
<svg version="1.1" id="&#x56FE;&#x5C42;_1" xmlns="http://www.w3.org/2000/svg" xmlns:xlink="http://www.w3.org/1999/xlink" x="0px"
	 y="0px" viewBox="0 0 113.737 65.72" style="enable-background:new 0 0 113.737 65.72;" xml:space="preserve">
<g>
	<g>
		<rect x="73.083" y="26.552" style="fill:#2EA7E0;" width="19.32" height="3.469"/>
		<g>
			<rect x="14.663" y="13.285" style="fill:#2EA7E0;" width="4.123" height="37.608"/>
		</g>
		<g>
			<rect x="14.663" y="10.816" style="fill:#2EA7E0;" width="8.247" height="3.762"/>
		</g>
		<g>
			<rect x="14.663" y="50.894" style="fill:#2EA7E0;" width="8.247" height="3.761"/>
		</g>
		<g>
			<rect x="96.95" y="13.285" style="fill:#2EA7E0;" width="4.124" height="37.608"/>
		</g>
		<g>
			<rect x="92.827" y="10.816" style="fill:#2EA7E0;" width="8.247" height="3.762"/>
		</g>
		<g>
			<rect x="92.827" y="50.894" style="fill:#2EA7E0;" width="8.247" height="3.761"/>
		</g>
		<rect x="24.548" y="10.816" style="fill:#2EA7E0;" width="3.761" height="3.762"/>
		<rect x="62.174" y="10.816" style="fill:#2EA7E0;" width="3.761" height="3.762"/>
		<rect x="24.548" y="22.075" style="fill:#2EA7E0;" width="3.243" height="32.829"/>
		<path style="fill:#2EA7E0;" d="M28.309,14.023v3.288h27.12l-0.113,33.037c0,0.667-0.222,0.81-0.889,0.857
			c-0.417,0.037-1.719,0.094-3.244,0.093v3.275c2.775,0.018,7.489,0,7.489,0s-0.002-1.697,0-4.147V14.023H28.309z"/>
		<rect x="32.701" y="27.232" style="fill:#2EA7E0;" width="23.718" height="2.789"/>
		<rect x="45.81" y="21.918" style="fill:#2EA7E0;" width="2.519" height="25.578"/>
		<rect x="40.272" y="46.951" style="fill:#2EA7E0;" width="5.539" height="2.907"/>
		<rect x="58.672" y="20.328" style="fill:#2EA7E0;" width="14.411" height="3.542"/>
		<rect x="69.92" y="22.81" style="fill:#2EA7E0;" width="3.163" height="7.211"/>
		<rect x="62.598" y="34.597" style="fill:#2EA7E0;" width="2.913" height="19.984"/>
		<polygon style="fill:#2EA7E0;" points="58.672,35.742 70.017,27.807 73.083,30.021 58.672,39.77 		"/>
		<polygon style="fill:#2EA7E0;" points="32.701,40.71 45.81,32.242 48.329,34.677 32.701,44.739 		"/>
		<rect x="79.327" y="14.023" style="fill:#2EA7E0;" width="3.493" height="40.559"/>
		<rect x="64.991" y="51.4" style="fill:#2EA7E0;" width="26.146" height="3.182"/>
	</g>
</g>
</svg>
