<svg xmlns="http://www.w3.org/2000/svg" viewBox="0 0 57.484 71.644" fill="#ffffff"><path d="M0 21.607h7.203v50.416H0z"/><path d="M0 64.82h57.62v7.202H0z"/><path d="M50.417 14.405h7.202V64.82h-7.202z"/><path d="M43.215 0h7.203v14.405h-7.203z"/><path d="M14.405 0h36.013v7.202H14.405zm21.607 42.045c0 1.17-5.74.42-7.202 1.17-4.313 2.217-5.017 7.2-5.017 7.2-2.186 0-2.186 0-2.186-8.37V29.98a1.17 1.17 0 0 1 1.17-1.17h12.065a1.17 1.17 0 0 1 1.17 1.17v12.066z"/><path d="M7.203 0h7.202v14.405H7.203z"/></svg>
